<?xml version="1.0" standalone="no"?>
<!DOCTYPE svg PUBLIC "-//W3C//DTD SVG 20010904//EN"
 "http://www.w3.org/TR/2001/REC-SVG-20010904/DTD/svg10.dtd">
<svg version="1.0" xmlns="http://www.w3.org/2000/svg"
 width="310.000000pt" height="163.000000pt" viewBox="0 0 310.000000 163.000000"
 preserveAspectRatio="xMidYMid meet">

<g transform="translate(0.000000,163.000000) scale(0.100000,-0.100000)"
fill="#000000" stroke="none">
<path d="M0 815 l0 -815 1550 0 1550 0 0 815 0 815 -1550 0 -1550 0 0 -815z
m1660 423 c0 -13 -23 -164 -50 -337 -28 -173 -50 -316 -50 -317 0 -2 -34 -4
-76 -4 l-76 0 4 28 c2 15 26 168 53 340 l49 312 73 0 c69 0 73 -1 73 -22z
m266 -5 c-3 -16 -26 -158 -51 -318 -25 -159 -47 -300 -50 -312 -5 -21 -11 -23
-81 -23 l-76 0 6 28 c3 15 26 158 51 317 25 160 47 300 50 313 5 20 11 22 81
22 l76 0 -6 -27z m-1256 -59 c78 -45 101 -132 59 -224 -26 -57 -44 -77 -94
-102 -22 -11 -41 -22 -43 -23 -2 -2 27 -51 63 -110 37 -59 69 -113 72 -121 4
-11 -13 -14 -94 -14 l-100 0 -54 118 -55 117 -18 -117 -18 -118 -83 0 c-74 0
-83 2 -79 18 5 19 94 589 94 598 0 4 71 5 158 2 136 -3 163 -6 192 -24z m466
-180 c19 -9 34 -21 35 -28 0 -6 4 -1 9 12 9 20 16 22 83 22 l74 0 -33 -207
c-18 -115 -33 -209 -34 -210 0 -2 -34 -3 -75 -3 -60 0 -75 3 -75 15 0 12 -6
11 -32 -5 -136 -82 -292 22 -275 184 17 167 188 284 323 220z m1707 5 l38 -10
-18 -28 c-47 -72 -46 -71 -85 -59 -46 14 -88 4 -88 -21 0 -15 13 -23 56 -36
71 -21 104 -52 104 -100 0 -142 -175 -225 -338 -160 -23 10 -42 21 -42 26 0 5
14 31 32 58 l32 48 33 -20 c41 -24 98 -26 119 -5 23 23 11 35 -57 54 -97 27
-121 77 -76 164 41 83 170 123 290 89z m-668 -104 c21 -57 41 -102 46 -100 4
3 36 50 71 105 l63 100 88 0 88 0 -72 -102 c-39 -57 -137 -199 -217 -315
l-147 -213 -83 0 c-97 0 -99 -15 16 149 l80 114 -18 46 c-10 25 -41 103 -69
174 -28 70 -51 132 -51 137 0 6 36 10 84 10 l84 0 37 -105z"/>
<path d="M456 1019 c-4 -30 -10 -65 -13 -78 -6 -23 -5 -24 42 -19 54 7 82 29
90 73 9 43 -12 66 -67 72 l-45 5 -7 -53z"/>
<path d="M1004 846 c-62 -62 -40 -147 40 -149 47 -1 82 19 101 58 21 46 19 72
-10 100 -37 38 -88 34 -131 -9z"/>
</g>
</svg>
